<svg width="176" height="24" viewBox="0 0 176 24" fill="none" xmlns="http://www.w3.org/2000/svg">
<g clip-path="url(#clip0_4637_641)">
<path d="M13.037 1.26007C13.358 0.718253 14.152 0.748489 14.4308 1.31315L24.9194 22.5549C25.1798 23.0821 24.7961 23.6993 24.2082 23.6993H19.9347C19.6298 23.6993 19.352 23.5246 19.2198 23.25L10.7952 5.73816C10.6802 5.49906 10.6923 5.21827 10.8276 4.98998L13.037 1.26007Z" fill="#1EC997"/>
<path d="M1.37451 23.898C0.763866 23.898 0.382215 23.237 0.687538 22.7082L3.87478 17.1877C4.1801 16.6588 4.94341 16.6589 5.24873 17.1877L8.43598 22.7082C8.7413 23.237 8.35965 23.898 7.749 23.898H1.37451Z" fill="#1EC997"/>
<path d="M36.7409 22.6385C36.4199 23.1804 35.6259 23.1501 35.3471 22.5855L24.8584 1.34368C24.5981 0.816484 24.9817 0.199219 25.5697 0.199219H29.8432C30.148 0.199219 30.4259 0.373888 30.558 0.648578L38.9827 18.1604C39.0977 18.3995 39.0856 18.6803 38.9503 18.9086L36.7409 22.6385Z" fill="#0071CE"/>
<path d="M48.4033 0C49.014 0 49.3956 0.661043 49.0903 1.18987L45.9031 6.71035C45.5977 7.23918 44.8344 7.23918 44.5291 6.71034L41.3419 1.18987C41.0365 0.661042 41.4182 0 42.0288 0H48.4033Z" fill="#0071CE"/>
<path d="M53.9631 21H50.5881L56.733 3.54545H60.6364L66.7898 21H63.4148L58.7528 7.125H58.6165L53.9631 21ZM54.0739 14.1562H63.2784V16.696H54.0739V14.1562ZM79.005 7.90909L74.343 21H70.9339L66.272 7.90909H69.5618L72.5703 17.6335H72.7067L75.7237 7.90909H79.005ZM86.4048 21.2557C85.1264 21.2557 84.0185 20.9744 83.081 20.4119C82.1435 19.8494 81.4162 19.0625 80.8991 18.0511C80.3878 17.0398 80.1321 15.858 80.1321 14.5057C80.1321 13.1534 80.3878 11.9687 80.8991 10.9517C81.4162 9.93466 82.1435 9.14489 83.081 8.58239C84.0185 8.01989 85.1264 7.73864 86.4048 7.73864C87.6832 7.73864 88.7912 8.01989 89.7287 8.58239C90.6662 9.14489 91.3906 9.93466 91.902 10.9517C92.419 11.9687 92.6776 13.1534 92.6776 14.5057C92.6776 15.858 92.419 17.0398 91.902 18.0511C91.3906 19.0625 90.6662 19.8494 89.7287 20.4119C88.7912 20.9744 87.6832 21.2557 86.4048 21.2557ZM86.4219 18.7841C87.1151 18.7841 87.6946 18.5937 88.1605 18.2131C88.6264 17.8267 88.973 17.3097 89.2003 16.6619C89.4332 16.0142 89.5497 15.2926 89.5497 14.4972C89.5497 13.696 89.4332 12.9716 89.2003 12.3239C88.973 11.6705 88.6264 11.1506 88.1605 10.7642C87.6946 10.3778 87.1151 10.1847 86.4219 10.1847C85.7116 10.1847 85.1207 10.3778 84.6491 10.7642C84.1832 11.1506 83.8338 11.6705 83.6009 12.3239C83.3736 12.9716 83.2599 13.696 83.2599 14.4972C83.2599 15.2926 83.3736 16.0142 83.6009 16.6619C83.8338 17.3097 84.1832 17.8267 84.6491 18.2131C85.1207 18.5937 85.7116 18.7841 86.4219 18.7841ZM105.643 11.3693L102.83 11.6761C102.751 11.392 102.612 11.125 102.413 10.875C102.219 10.625 101.958 10.4233 101.629 10.2699C101.299 10.1165 100.896 10.0398 100.418 10.0398C99.7763 10.0398 99.2365 10.179 98.799 10.4574C98.3672 10.7358 98.1541 11.0966 98.1598 11.5398C98.1541 11.9205 98.2933 12.2301 98.5774 12.4688C98.8672 12.7074 99.3445 12.9034 100.009 13.0568L102.242 13.5341C103.481 13.8011 104.401 14.2244 105.004 14.804C105.612 15.3835 105.918 16.142 105.924 17.0795C105.918 17.9034 105.677 18.6307 105.2 19.2614C104.728 19.8864 104.072 20.375 103.231 20.7273C102.39 21.0795 101.424 21.2557 100.333 21.2557C98.7308 21.2557 97.4411 20.9205 96.4638 20.25C95.4865 19.5739 94.9041 18.6335 94.7166 17.429L97.7251 17.1392C97.8615 17.7301 98.1513 18.1761 98.5945 18.4773C99.0376 18.7784 99.6143 18.929 100.325 18.929C101.058 18.929 101.646 18.7784 102.089 18.4773C102.538 18.1761 102.762 17.804 102.762 17.3608C102.762 16.9858 102.617 16.6761 102.327 16.4318C102.043 16.1875 101.6 16 100.998 15.8693L98.7649 15.4006C97.5092 15.1392 96.5803 14.6989 95.978 14.0795C95.3757 13.4545 95.0774 12.6648 95.0831 11.7102C95.0774 10.9034 95.2962 10.2045 95.7393 9.61364C96.1882 9.01705 96.8104 8.55682 97.6058 8.23295C98.407 7.90341 99.3303 7.73864 100.376 7.73864C101.91 7.73864 103.117 8.06534 103.998 8.71875C104.884 9.37216 105.433 10.2557 105.643 11.3693ZM112.235 21.2642C111.406 21.2642 110.658 21.1165 109.994 20.821C109.335 20.5199 108.812 20.0767 108.425 19.4915C108.045 18.9062 107.854 18.1847 107.854 17.3267C107.854 16.5881 107.991 15.9773 108.263 15.4943C108.536 15.0114 108.908 14.625 109.38 14.3352C109.852 14.0455 110.383 13.8267 110.974 13.679C111.57 13.5256 112.187 13.4148 112.823 13.3466C113.59 13.267 114.212 13.196 114.69 13.1335C115.167 13.0653 115.513 12.9631 115.729 12.8267C115.951 12.6847 116.062 12.4659 116.062 12.1705V12.1193C116.062 11.4773 115.871 10.9801 115.491 10.6278C115.11 10.2756 114.562 10.0994 113.846 10.0994C113.09 10.0994 112.491 10.2642 112.048 10.5938C111.61 10.9233 111.315 11.3125 111.161 11.7614L108.281 11.3523C108.508 10.5568 108.883 9.89205 109.406 9.35795C109.928 8.81818 110.567 8.41477 111.323 8.14773C112.079 7.875 112.914 7.73864 113.829 7.73864C114.46 7.73864 115.087 7.8125 115.712 7.96023C116.337 8.10795 116.908 8.35227 117.425 8.69318C117.942 9.02841 118.357 9.4858 118.67 10.0653C118.988 10.6449 119.147 11.3693 119.147 12.2386V21H116.181V19.2017H116.079C115.891 19.5653 115.627 19.9062 115.286 20.2244C114.951 20.5369 114.528 20.7898 114.016 20.983C113.511 21.1705 112.917 21.2642 112.235 21.2642ZM113.036 18.9972C113.656 18.9972 114.192 18.875 114.647 18.6307C115.102 18.3807 115.451 18.0511 115.695 17.642C115.945 17.233 116.07 16.7869 116.07 16.304V14.7614C115.974 14.8409 115.809 14.9148 115.576 14.983C115.349 15.0511 115.093 15.1108 114.809 15.1619C114.525 15.2131 114.244 15.2585 113.965 15.2983C113.687 15.3381 113.445 15.3722 113.241 15.4006C112.781 15.4631 112.369 15.5653 112.005 15.7074C111.641 15.8494 111.354 16.0483 111.144 16.304C110.934 16.554 110.829 16.8778 110.829 17.2756C110.829 17.8438 111.036 18.2727 111.451 18.5625C111.866 18.8523 112.394 18.9972 113.036 18.9972ZM122.249 21V7.90909H125.241V10.0909H125.377C125.616 9.33523 126.025 8.75284 126.604 8.34375C127.19 7.92898 127.857 7.72159 128.607 7.72159C128.778 7.72159 128.968 7.73011 129.178 7.74716C129.394 7.75852 129.573 7.77841 129.715 7.80682V10.6449C129.585 10.5994 129.377 10.5597 129.093 10.5256C128.815 10.4858 128.545 10.4659 128.283 10.4659C127.721 10.4659 127.215 10.5881 126.766 10.8324C126.323 11.071 125.974 11.4034 125.718 11.8295C125.462 12.2557 125.335 12.7472 125.335 13.304V21H122.249ZM131.765 21V7.90909H134.756V10.0909H134.893C135.131 9.33523 135.54 8.75284 136.12 8.34375C136.705 7.92898 137.373 7.72159 138.123 7.72159C138.293 7.72159 138.484 7.73011 138.694 7.74716C138.91 7.75852 139.089 7.77841 139.231 7.80682V10.6449C139.1 10.5994 138.893 10.5597 138.609 10.5256C138.33 10.4858 138.06 10.4659 137.799 10.4659C137.237 10.4659 136.731 10.5881 136.282 10.8324C135.839 11.071 135.489 11.4034 135.234 11.8295C134.978 12.2557 134.85 12.7472 134.85 13.304V21H131.765ZM146.537 21.2557C145.224 21.2557 144.091 20.983 143.136 20.4375C142.188 19.8864 141.457 19.108 140.946 18.1023C140.435 17.0909 140.179 15.9006 140.179 14.5312C140.179 13.1847 140.435 12.0028 140.946 10.9858C141.463 9.96307 142.185 9.16761 143.111 8.59943C144.037 8.02557 145.125 7.73864 146.375 7.73864C147.182 7.73864 147.943 7.86932 148.659 8.13068C149.381 8.38636 150.017 8.78409 150.568 9.32386C151.125 9.86364 151.563 10.5511 151.881 11.3864C152.199 12.2159 152.358 13.2045 152.358 14.3523V15.2983H141.628V13.2188H149.401C149.395 12.6278 149.267 12.1023 149.017 11.642C148.767 11.1761 148.418 10.8097 147.969 10.5426C147.526 10.2756 147.009 10.142 146.418 10.142C145.787 10.142 145.233 10.2955 144.756 10.6023C144.278 10.9034 143.906 11.3011 143.639 11.7955C143.378 12.2841 143.244 12.821 143.239 13.4062V15.2216C143.239 15.983 143.378 16.6364 143.656 17.1818C143.935 17.7216 144.324 18.1364 144.824 18.4261C145.324 18.7102 145.909 18.8523 146.58 18.8523C147.028 18.8523 147.435 18.7898 147.798 18.6648C148.162 18.5341 148.477 18.3438 148.744 18.0938C149.011 17.8438 149.213 17.5341 149.349 17.1648L152.23 17.4886C152.048 18.25 151.702 18.9148 151.19 19.483C150.685 20.0455 150.037 20.483 149.247 20.7955C148.457 21.1023 147.554 21.2557 146.537 21.2557ZM161.505 7.90909V10.2955H153.979V7.90909H161.505ZM155.837 4.77273H158.923V17.0625C158.923 17.4773 158.985 17.7955 159.11 18.017C159.241 18.233 159.411 18.3807 159.621 18.4602C159.832 18.5398 160.065 18.5795 160.32 18.5795C160.513 18.5795 160.69 18.5653 160.849 18.5369C161.013 18.5085 161.138 18.483 161.224 18.4602L161.744 20.8722C161.579 20.929 161.343 20.9915 161.036 21.0597C160.735 21.1278 160.366 21.1676 159.928 21.179C159.156 21.2017 158.46 21.0852 157.84 20.8295C157.221 20.5682 156.729 20.1648 156.366 19.6193C156.008 19.0739 155.832 18.392 155.837 17.5739V4.77273ZM174.244 11.3693L171.432 11.6761C171.352 11.392 171.213 11.125 171.014 10.875C170.821 10.625 170.56 10.4233 170.23 10.2699C169.901 10.1165 169.497 10.0398 169.02 10.0398C168.378 10.0398 167.838 10.179 167.401 10.4574C166.969 10.7358 166.756 11.0966 166.761 11.5398C166.756 11.9205 166.895 12.2301 167.179 12.4688C167.469 12.7074 167.946 12.9034 168.611 13.0568L170.844 13.5341C172.082 13.8011 173.003 14.2244 173.605 14.804C174.213 15.3835 174.52 16.142 174.526 17.0795C174.52 17.9034 174.278 18.6307 173.801 19.2614C173.33 19.8864 172.673 20.375 171.832 20.7273C170.991 21.0795 170.026 21.2557 168.935 21.2557C167.332 21.2557 166.043 20.9205 165.065 20.25C164.088 19.5739 163.506 18.6335 163.318 17.429L166.327 17.1392C166.463 17.7301 166.753 18.1761 167.196 18.4773C167.639 18.7784 168.216 18.929 168.926 18.929C169.659 18.929 170.247 18.7784 170.69 18.4773C171.139 18.1761 171.364 17.804 171.364 17.3608C171.364 16.9858 171.219 16.6761 170.929 16.4318C170.645 16.1875 170.202 16 169.599 15.8693L167.366 15.4006C166.111 15.1392 165.182 14.6989 164.58 14.0795C163.977 13.4545 163.679 12.6648 163.685 11.7102C163.679 10.9034 163.898 10.2045 164.341 9.61364C164.79 9.01705 165.412 8.55682 166.207 8.23295C167.009 7.90341 167.932 7.73864 168.977 7.73864C170.511 7.73864 171.719 8.06534 172.599 8.71875C173.486 9.37216 174.034 10.2557 174.244 11.3693Z" fill="#0071CE"/>
</g>
<defs>
<clipPath id="clip0_4637_641">
<rect width="176" height="24" fill="white"/>
</clipPath>
</defs>
</svg>
